<svg id="Layer_5"  enable-background="new 0 0 64 64" viewBox="0 0 64  64" xmlns="http://www.w3.org/2000/svg"><g><g><g><path d="m22 36v20h-20v-20h4z" fill="#ff826e"/></g><g><path d="m32 54v2h-6v-20h6v2z" fill="#ff826e"/></g><g><path d="m22 36h4v20h-4z" fill="#fc6e51"/></g><g><path d="m6 2v34h16 4 6v2h5l.24-.24c1.13-1.13 2.65-1.76 4.25-1.76h6.51v-34z" fill="#e6e9ed"/></g><g><path d="m10 6h20v18h-20z" fill="#ffeaa7"/></g><g><path d="m26 22v2h-12v-2c0-3.31 2.69-6 6-6 1.66 0 3.16.67 4.24 1.76 1.09 1.08 1.76 2.58 1.76 4.24z" fill="#b4dd7f"/></g><g><circle cx="20" cy="13" fill="#f0d0b4" r="3"/></g><g><path d="m52 56v2c0 2.21-1.79 4-4 4-1.1 0-2.1-.45-2.83-1.17-.72-.73-1.17-1.73-1.17-2.83v-2-16h6c-.55 0-1.05.22-1.41.59-.37.36-.59.86-.59 1.41 0 1.1.9 2 2 2-.55 0-1.05.22-1.41.59-.37.36-.59.86-.59 1.41 0 1.1.9 2 2 2-.55 0-1.05.22-1.41.59-.37.36-.59.86-.59 1.41 0 1.1.9 2 2 2-.55 0-1.05.22-1.41.59-.37.36-.59.86-.59 1.41 0 1.1.9 2 2 2z" fill="#969faa"/></g><g><path d="m54 52c1.1 0 2 .9 2 2 0 .55-.22 1.05-.59 1.41-.36.37-.86.59-1.41.59h-2-2c-1.1 0-2-.9-2-2 0-.55.22-1.05.59-1.41.36-.37.86-.59 1.41-.59z" fill="#f0d0b4"/></g><g><path d="m54 44c1.1 0 2 .9 2 2 0 .55-.22 1.05-.59 1.41-.36.37-.86.59-1.41.59h-4c-1.1 0-2-.9-2-2 0-.55.22-1.05.59-1.41.36-.37.86-.59 1.41-.59z" fill="#f0d0b4"/></g><g><path d="m54 40c1.1 0 2 .9 2 2 0 .55-.22 1.05-.59 1.41-.36.37-.86.59-1.41.59h-4c-1.1 0-2-.9-2-2 0-.55.22-1.05.59-1.41.36-.37.86-.59 1.41-.59z" fill="#f0d0b4"/></g><g><path d="m54 48c1.1 0 2 .9 2 2 0 .55-.22 1.05-.59 1.41-.36.37-.86.59-1.41.59h-4c-1.1 0-2-.9-2-2 0-.55.22-1.05.59-1.41.36-.37.86-.59 1.41-.59z" fill="#f0d0b4"/></g><g><path d="m44 40v16h-1.58c-.94 0-1.85-.22-2.69-.63l-2.73-1.37h-5v-16h5l.24-.24c1.13-1.13 2.65-1.76 4.25-1.76h6.51 4c.55 0 1 .45 1 1 0 .83-.34 1.58-.88 2.12s-1.29.88-2.12.88z" fill="#f0d0b4"/></g><g><path d="m48 8c7.73 0 14 6.27 14 14s-6.27 14-14 14-14-6.27-14-14 6.27-14 14-14z" fill="#fcd770"/></g><g><circle cx="48" cy="22" fill="#69d6f4" r="10"/></g></g><g><path d="m48 11c-6.065 0-11 4.935-11 11s4.935 11 11 11 11-4.935 11-11-4.935-11-11-11zm0 20c-4.963 0-9-4.038-9-9s4.037-9 9-9 9 4.038 9 9-4.037 9-9 9z"/><path d="m63 22c0-7.933-6.195-14.431-14-14.949v-6.051h-44v34h-4v22h32v-2h3.764l2.522 1.261c.966.483 2.049.739 3.13.739h.584v1c0 2.757 2.243 5 5 5s5-2.243 5-5v-1h1c1.654 0 3-1.346 3-3 0-.771-.301-1.468-.78-2 .48-.532.78-1.229.78-2s-.301-1.468-.78-2c.48-.532.78-1.229.78-2s-.301-1.468-.78-2c.48-.532.78-1.229.78-2 0-1.654-1.346-3-3-3h-.556c.344-.591.556-1.268.556-2 0-.413-.126-.797-.342-1.117 5.473-2.238 9.342-7.614 9.342-13.883zm-56-19h40v4.051c-7.805.518-14 7.016-14 14.949 0 5.596 3.086 10.478 7.641 13.056-1.526.183-2.942.853-4.055 1.944h-3.586v-2h-26zm18 34v18h-2v-18zm-22 0h18v18h-18zm28 18h-4v-18h4zm20 3c0 1.654-1.346 3-3 3s-3-1.346-3-3v-17h2.184c-.112.314-.184.648-.184 1 0 .771.301 1.468.78 2-.48.532-.78 1.229-.78 2s.301 1.468.78 2c-.48.532-.78 1.229-.78 2s.301 1.468.78 2c-.48.532-.78 1.229-.78 2 0 1.654 1.346 3 3 3h1zm4-12c0 .552-.448 1-1 1h-4c-.552 0-1-.448-1-1s.448-1 1-1h4c.552 0 1 .448 1 1zm0 4c0 .552-.448 1-1 1h-4c-.552 0-1-.448-1-1s.448-1 1-1h4c.552 0 1 .448 1 1zm-1 5h-4c-.552 0-1-.448-1-1s.448-1 1-1h4c.552 0 1 .448 1 1s-.448 1-1 1zm1-13c0 .552-.448 1-1 1h-4c-.552 0-1-.448-1-1s.448-1 1-1h4c.552 0 1 .448 1 1zm-3-5c0 1.103-.897 2-2 2h-7.414l-.535.535c-.945.944-2.2 1.465-3.536 1.465h-1.515v2h1.515c1.659 0 3.228-.578 4.485-1.632v13.632h-.584c-.772 0-1.545-.183-2.235-.528l-2.945-1.472h-4.236v-14h4.414l.535-.535c.944-.944 2.2-1.465 3.536-1.465zm-4-2c-7.168 0-13-5.832-13-13s5.832-13 13-13 13 5.832 13 13-5.832 13-13 13z"/><path d="m46 23.586-1.293-1.293-1.414 1.414 2.707 2.707 7.707-7.707-1.414-1.414z"/><path d="m9 25h22v-20h-22zm9-12c0-1.103.897-2 2-2s2 .897 2 2-.897 2-2 2-2-.897-2-2zm2 4c2.757 0 5 2.243 5 5v1h-10v-1c0-2.757 2.243-5 5-5zm-9-10h18v16h-2v-1c0-2.801-1.658-5.216-4.04-6.334.64-.709 1.04-1.638 1.04-2.666 0-2.206-1.794-4-4-4s-4 1.794-4 4c0 1.028.4 1.957 1.04 2.666-2.382 1.118-4.04 3.533-4.04 6.334v1h-2z"/><path d="m9 27h2v2h-2z"/><path d="m13 27h18v2h-18z"/><path d="m9 31h22v2h-22z"/></g></g></svg>