<?xml version="1.0" encoding="iso-8859-1"?>
<!-- Generator: Adobe Illustrator 19.0.0, SVG Export Plug-In . SVG Version: 6.00 Build 0)  -->
<svg version="1.1" id="Capa_1" xmlns="http://www.w3.org/2000/svg" xmlns:xlink="http://www.w3.org/1999/xlink" x="0px" y="0px"
	 viewBox="0 0 512 512" style="enable-background:new 0 0 512 512;" xml:space="preserve">
<path style="fill:#72D8FF;" d="M188.185,336.769l-35.407-8.485l-35.619,8.509c-26.833,6.41-45.763,30.394-45.763,57.982v67.221
	h29.567L217.21,353.383C209.518,345.397,199.568,339.497,188.185,336.769z"/>
<path style="fill:#FFCDAC;" d="M140.792,302.791c21.659-7.737,37.163-28.426,37.163-52.743v-34.79h-74.327v34.79
	C103.628,274.365,119.132,295.054,140.792,302.791z"/>
<path style="fill:#898998;" d="M104.456,226.262h0.098c24.174,0,47.895-6.563,68.631-18.988l4.77,18.988v-13.481
	c0-22.342-13.087-41.623-32.012-50.609c-24.385,10.357-41.487,34.523-41.487,62.686
	C104.456,224.858,104.456,226.262,104.456,226.262z"/>
<path style="fill:#A0E557;" d="M456.237,336.794l-41.036-9.803v-25.198h-50.243v25.117l-10.368,2.484l30.973,7.399
	c26.833,6.41,45.763,30.394,45.763,57.982v67.221H502v-67.221C502,367.188,483.07,343.204,456.237,336.794z"/>
<path style="fill:#FFFFFF;" d="M254.16,366.131l46.822-11.22l-10.047-2.4l-69.981-0.112l-57.306,13.732
	c-37.348,8.95-63.685,42.343-63.685,80.747v55.118h90.513v-55.118C190.475,408.474,216.812,375.081,254.16,366.131z"/>
<path style="fill:#FF5D5D;" d="M348.091,366.165l-47.109-11.254l-46.822,11.22c-37.348,8.95-63.685,42.343-63.685,80.747v55.118
	h221.357v-55.07C411.833,408.5,385.466,375.094,348.091,366.165z"/>
<g>
	<polygon style="fill:#FFFFFF;" points="120.5,301.793 96,301.793 96,327.678 122.046,390.043 134.294,360.706 120.5,327.678 	"/>
	<polygon style="fill:#FFFFFF;" points="388.38,301.793 363.88,301.793 363.88,327.588 389.954,390.043 402.206,360.706 
		388.38,327.588 	"/>
</g>
<g>
	<polygon style="fill:#FFCDAC;" points="148.12,301.793 120.5,301.793 120.5,327.678 134.294,360.706 148.12,327.588 	"/>
	<polygon style="fill:#FFCDAC;" points="416,301.793 388.38,301.793 388.38,327.588 402.206,360.706 416,327.678 	"/>
</g>
<path style="fill:#FFFFFF;" d="M253.507,332.235v-8.143h-30.5v8.143c0,5.72-1.572,11.124-4.333,15.769l37.336,84.731l15.247-34.616
	l-22.083-50.115C251.935,343.359,253.507,337.955,253.507,332.235z"/>
<g>
	<path style="fill:#FFEFD5;" d="M288.973,332.234v-8.142h-35.466v8.143c0,5.72-1.572,11.124-4.333,15.769l22.083,50.115
		l22.063-50.092C290.551,343.377,288.973,337.964,288.973,332.234z"/>
	<path style="fill:#FFEFD5;" d="M282.5,318.716c30.032-10.849,51.5-39.602,51.5-73.376v-53.819H231v53.819
		C231,279.114,252.468,307.868,282.5,318.716z"/>
</g>
<path style="fill:#FFB954;" d="M287.853,122.237C254.498,135.903,231,168.686,231,206.963v3.943
	c19.712-3.471,37.765-13.769,50.822-29.35l0,0l50.775,29.831c0.472-0.323,0.938-0.656,1.404-0.987v-16.965
	C334,161.706,315.046,134.423,287.853,122.237z"/>
<path style="fill:#FFCDAC;" d="M409.171,302.694c21.511-7.816,36.877-28.435,36.877-52.647v-34.79h-73.755v34.79
	C372.293,274.259,387.66,294.879,409.171,302.694z"/>
<path style="fill:#898998;" d="M414.843,162.568c-23.335,10.128-40.077,32.552-42.076,59.099c1.675,0.451,3.36,0.864,5.052,1.249
	l0.707-2.815l0,0c2.644,1.585,5.336,3.073,8.055,4.504c6.876,1.088,13.849,1.658,20.864,1.658h38.603v-13.481
	C446.048,190.759,433.33,171.715,414.843,162.568z"/>
<path d="M10,471.996h79.963v30c0,5.523,4.478,10,10,10h109.704c5.522,0,10-4.477,10-10s-4.478-10-10-10h-44.643v-44.012
	c0-5.523-4.478-10-10-10s-10,4.477-10,10v44.012h-35.062v-45.118c0-33.914,23.034-63.119,56.015-71.022l49.183-11.786l31.646,71.996
	c1.596,3.631,5.187,5.976,9.153,5.976h0.001c3.966,0,7.558-2.344,9.154-5.975l31.614-71.891l49.04,11.715
	c33.011,7.885,56.065,37.096,56.065,71.034v11.159c-0.511,1.202-0.795,2.523-0.795,3.911s0.284,2.71,0.795,3.911v26.089h-34.857
	v-44.012c0-5.523-4.478-10-10-10s-10,4.477-10,10v44.012h-48.975c-5.522,0-10,4.477-10,10s4.478,10,10,10h113.832
	c5.522,0,10-4.477,10-10v-30H502c5.522,0,10-4.477,10-10v-67.221c0-32.349-21.976-60.192-53.44-67.708l-33.358-7.969v-13.232
	c18.516-11.703,30.848-32.342,30.848-55.818v-23.786v-11.005v-2.476c0-36.393-29.608-66-66.002-66
	c-19.632,0-37.279,8.626-49.38,22.275c-10.598-36.703-44.495-63.623-84.564-63.623h-0.001c-40.134,0-74.077,27.005-84.616,63.798
	c-12.104-13.75-29.816-22.45-49.532-22.45c-36.394,0-66.002,29.608-66.002,66v2.476v11.005v23.786
	c0,23.477,12.332,44.116,30.848,55.818v13.232l-33.358,7.969C21.976,334.584,0,362.426,0,394.776v67.221
	C0,467.519,4.478,471.996,10,471.996z M177.708,285.302c7.539,14.729,19.11,27.063,33.245,35.547v14.715
	c-6.278-3.894-13.166-6.777-20.438-8.519l-33.474-8.021v-13.115C165.366,300.662,172.437,293.61,177.708,285.302z M354.959,305.909
	v13.115l-33.474,8.021c-7.316,1.753-14.243,4.662-20.552,8.592v-14.599c14.222-8.455,25.874-20.798,33.471-35.559
	C339.665,293.709,346.693,300.699,354.959,305.909z M324.045,226.262v21.426c-1.244,36.411-31.233,65.654-67.943,65.654
	c-37.496,0-68.002-30.505-68.002-68.001v-23.13h28.138c25.524,0,49.715-10.088,67.587-27.941l40.221,23.629v8.363H324.045z
	 M161.317,356.407c-5.905,1.415-11.548,3.384-16.906,5.812l9.74-23.322l31.703,7.597c2.459,0.589,4.855,1.368,7.174,2.314
	L161.317,356.407z M255.962,407.195l-25.009-56.897v-20.624c7.972,2.382,16.413,3.667,25.149,3.667
	c8.62,0,16.953-1.252,24.831-3.573v20.641L255.962,407.195z M318.789,348.884c2.376-0.98,4.833-1.785,7.357-2.39l31.626-7.578
	l9.78,23.426c-5.427-2.472-11.148-4.471-17.138-5.902L318.789,348.884z M492,394.776v57.221h-20v-44.429c0-5.523-4.478-10-10-10
	s-10,4.477-10,10v44.429h-30.167v-5.07c0-21.899-7.546-42.245-20.448-58.305l20.753-49.692l31.775,7.591
	C476.338,351.877,492,371.72,492,394.776z M405.224,327.531l-15.268,36.559l-15.062-36.078c0.04-0.363,0.069-0.728,0.069-1.094
	c0-0.093-0.001-0.187-0.004-0.28v-12.35c4.85,1.139,9.896,1.76,15.088,1.76c5.215,0,10.285-0.627,15.154-1.776v12.718
	C405.201,327.173,405.214,327.351,405.224,327.531z M390.047,296.048c-25.365,0-46.002-20.636-46.002-46.001v-1.632
	c0.035-1.021,0.06-2.045,0.06-3.075v-23.814c19.659,9.668,41.332,14.735,63.342,14.735h28.603v13.786
	C436.049,275.413,415.412,296.048,390.047,296.048z M390.047,166.781c25.365,0,46.002,20.636,46.002,46v2.476v1.005h-28.603
	c-21.606,0-42.837-5.673-61.548-16.426C351.504,180.754,369.174,166.781,390.047,166.781z M188.1,193.434
	c0-37.496,30.506-68,68.003-68c37.496,0,68.002,30.505,68.002,68v1.304l-37.115-21.805c-4.211-2.475-9.593-1.544-12.73,2.199
	c-14.42,17.208-35.568,27.078-58.021,27.078H188.1v-5.328V193.434z M75.951,212.781c0-25.365,20.637-46,46.002-46
	c20.873,0,38.543,13.973,44.148,33.056c-18.711,10.752-39.941,16.426-61.548,16.426H75.951v-1.005V212.781z M75.951,236.262h28.603
	c22.032,0,43.727-5.076,63.401-14.763v4.763v23.786c0,25.365-20.637,46.001-46.002,46.001s-46.002-20.636-46.002-46.001
	C75.951,250.048,75.951,236.262,75.951,236.262z M121.953,316.048c5.192,0,10.238-0.622,15.088-1.76v12.07
	c-0.011,0.188-0.016,0.376-0.016,0.564c0,0.315,0.03,0.628,0.06,0.941l-15.13,36.227l-15.187-36.379
	c0.017-0.239,0.031-0.478,0.031-0.72v-12.718C111.668,315.422,116.738,316.048,121.953,316.048z M20,394.776
	c0-23.055,15.662-42.898,38.087-48.255l31.698-7.573l20.688,49.555c-12.939,16.073-20.51,36.447-20.51,58.375v5.118H60v-44.429
	c0-5.523-4.478-10-10-10s-10,4.477-10,10v44.429H20V394.776z"/>
<path d="M406.62,73.996h6.859c5.522,0,10-4.477,10-10s-4.478-10-10-10h-6.859c-5.522,0-10,4.477-10,10S401.098,73.996,406.62,73.996
	z"/>
<path d="M455.141,73.996H462c5.522,0,10-4.477,10-10s-4.478-10-10-10h-6.859c-5.522,0-10,4.477-10,10S449.618,73.996,455.141,73.996
	z"/>
<path d="M231.7,237.426c-0.25-0.61-0.561-1.19-0.921-1.73c-0.369-0.55-0.789-1.06-1.25-1.52c-0.46-0.46-0.97-0.88-1.52-1.24
	c-0.54-0.36-1.12-0.67-1.72-0.92c-0.61-0.25-1.24-0.44-1.87-0.57c-1.29-0.26-2.62-0.26-3.91,0c-0.64,0.13-1.27,0.32-1.87,0.57
	c-0.61,0.25-1.189,0.56-1.729,0.92c-0.551,0.36-1.061,0.78-1.521,1.24c-1.86,1.86-2.93,4.44-2.93,7.07c0,0.65,0.069,1.31,0.2,1.95
	c0.13,0.64,0.319,1.27,0.569,1.87c0.25,0.61,0.561,1.19,0.92,1.73c0.36,0.55,0.78,1.06,1.24,1.52s0.97,0.88,1.521,1.24
	c0.54,0.36,1.119,0.67,1.729,0.92c0.601,0.25,1.23,0.45,1.87,0.57c0.64,0.13,1.3,0.2,1.95,0.2c2.63,0,5.21-1.07,7.069-2.93
	c0.461-0.46,0.881-0.97,1.25-1.52c0.36-0.54,0.671-1.12,0.921-1.73c0.25-0.6,0.439-1.23,0.569-1.87s0.19-1.3,0.19-1.95
	s-0.061-1.31-0.19-1.95S231.95,238.026,231.7,237.426z"/>
<path d="M282.26,234.176c-0.46,0.46-0.88,0.97-1.24,1.52c-0.359,0.54-0.67,1.12-0.92,1.73c-0.25,0.6-0.439,1.23-0.57,1.87
	c-0.13,0.64-0.199,1.3-0.199,1.95s0.069,1.31,0.199,1.95c0.131,0.64,0.32,1.27,0.57,1.88c0.25,0.6,0.561,1.18,0.92,1.72
	c0.36,0.55,0.78,1.06,1.24,1.52s0.97,0.88,1.52,1.25c0.54,0.36,1.12,0.66,1.73,0.91c0.6,0.25,1.23,0.45,1.87,0.58
	c0.64,0.13,1.3,0.19,1.95,0.19c0.66,0,1.31-0.06,1.96-0.19c0.63-0.13,1.26-0.33,1.87-0.58c0.6-0.25,1.18-0.55,1.72-0.91
	c0.55-0.37,1.06-0.79,1.53-1.25c1.859-1.86,2.92-4.44,2.92-7.07s-1.061-5.21-2.92-7.07c-0.471-0.46-0.98-0.88-1.53-1.24
	c-0.54-0.36-1.12-0.67-1.72-0.92c-0.61-0.25-1.24-0.45-1.87-0.57c-1.29-0.26-2.62-0.26-3.91,0c-0.64,0.12-1.271,0.32-1.87,0.57
	c-0.61,0.25-1.19,0.56-1.73,0.92C283.229,233.296,282.72,233.716,282.26,234.176z"/>
<path d="M261.104,267.838c-2.957,2.957-7.768,2.957-10.725,0c-3.906-3.905-10.236-3.905-14.143,0
	c-3.905,3.905-3.905,10.237,0,14.143c5.378,5.377,12.441,8.066,19.505,8.066c7.064,0,14.127-2.688,19.505-8.066
	c3.905-3.905,3.905-10.237,0-14.143C271.341,263.933,265.011,263.933,261.104,267.838z"/>
<path d="M434.311,101.686c5.522,0,10-4.477,10-10v-6.859c0-5.523-4.478-10-10-10s-10,4.477-10,10v6.859
	C424.311,97.209,428.788,101.686,434.311,101.686z"/>
<path d="M434.311,53.166c5.522,0,10-4.477,10-10v-6.859c0-5.523-4.478-10-10-10s-10,4.477-10,10v6.859
	C424.311,48.689,428.788,53.166,434.311,53.166z"/>
<path d="M49.444,73.996h6.858c5.522,0,10-4.477,10-10s-4.478-10-10-10h-6.858c-5.522,0-10,4.477-10,10S43.922,73.996,49.444,73.996z
	"/>
<path d="M97.965,73.996h6.858c5.522,0,10-4.477,10-10s-4.478-10-10-10h-6.858c-5.522,0-10,4.477-10,10S92.442,73.996,97.965,73.996z
	"/>
<path d="M77.134,101.686c5.522,0,10-4.477,10-10v-6.859c0-5.523-4.478-10-10-10s-10,4.477-10,10v6.859
	C67.134,97.209,71.611,101.686,77.134,101.686z"/>
<path d="M77.134,53.166c5.522,0,10-4.477,10-10v-6.859c0-5.523-4.478-10-10-10s-10,4.477-10,10v6.859
	C67.134,48.689,71.611,53.166,77.134,53.166z"/>
<path d="M256,84.394c5.522,0,10-4.477,10-10v-26.31c0-5.523-4.478-10-10-10s-10,4.477-10,10v26.31
	C246,79.917,250.478,84.394,256,84.394z"/>
<path d="M246.77,13.826c0.25,0.6,0.561,1.18,0.92,1.72c0.36,0.55,0.78,1.06,1.24,1.52s0.97,0.88,1.521,1.24
	c0.54,0.36,1.119,0.67,1.729,0.92c0.6,0.25,1.23,0.44,1.87,0.57s1.3,0.2,1.95,0.2c2.63,0,5.21-1.07,7.069-2.93
	c0.46-0.46,0.881-0.97,1.24-1.52c0.36-0.54,0.67-1.12,0.92-1.72c0.25-0.61,0.45-1.24,0.57-1.88c0.13-0.64,0.2-1.3,0.2-1.95
	s-0.07-1.31-0.2-1.95c-0.12-0.64-0.32-1.27-0.57-1.87c-0.25-0.61-0.56-1.19-0.92-1.73c-0.359-0.55-0.78-1.06-1.24-1.52
	c-2.319-2.32-5.77-3.39-9.02-2.73c-0.64,0.12-1.271,0.32-1.87,0.57c-0.61,0.25-1.189,0.56-1.729,0.92
	c-0.551,0.36-1.061,0.78-1.521,1.24s-0.88,0.97-1.24,1.52c-0.359,0.54-0.67,1.12-0.92,1.73c-0.25,0.6-0.439,1.23-0.569,1.87
	c-0.131,0.64-0.2,1.3-0.2,1.95s0.069,1.31,0.2,1.95C246.33,12.586,246.52,13.216,246.77,13.826z"/>
<path d="M206.813,54.258c1.953,1.953,4.512,2.929,7.071,2.929s5.118-0.976,7.071-2.929c3.905-3.905,3.905-10.237,0-14.143
	l-14.634-14.634c-3.906-3.905-10.236-3.905-14.143,0c-3.905,3.905-3.905,10.237,0,14.143L206.813,54.258z"/>
<path d="M297.626,57.127c2.56,0,5.118-0.976,7.071-2.929l15.123-15.123c3.905-3.905,3.905-10.237,0-14.143
	c-3.906-3.905-10.236-3.905-14.143,0l-15.123,15.123c-3.905,3.905-3.905,10.237,0,14.143
	C292.508,56.151,295.066,57.127,297.626,57.127z"/>
<path d="M247.43,507.546c0.36,0.55,0.78,1.06,1.24,1.52s0.97,0.88,1.52,1.24c0.54,0.36,1.12,0.67,1.73,0.92
	c0.6,0.25,1.229,0.45,1.87,0.57c0.64,0.13,1.3,0.2,1.95,0.2c2.63,0,5.21-1.07,7.069-2.93c0.46-0.46,0.88-0.97,1.24-1.52
	c0.36-0.54,0.67-1.12,0.92-1.73c0.25-0.6,0.45-1.23,0.57-1.87c0.13-0.64,0.2-1.3,0.2-1.95c0-0.65-0.07-1.31-0.2-1.95
	c-0.12-0.64-0.32-1.27-0.57-1.87c-0.25-0.61-0.56-1.19-0.92-1.73c-0.36-0.55-0.78-1.06-1.24-1.52c-2.319-2.32-5.77-3.39-9.02-2.73
	c-0.641,0.12-1.271,0.32-1.87,0.57c-0.61,0.25-1.19,0.56-1.73,0.92c-0.55,0.36-1.06,0.78-1.52,1.24s-0.88,0.97-1.24,1.52
	c-0.36,0.54-0.67,1.12-0.92,1.73c-0.25,0.6-0.45,1.23-0.57,1.87c-0.13,0.64-0.199,1.3-0.199,1.95c0,0.65,0.069,1.31,0.199,1.95
	c0.12,0.64,0.32,1.27,0.57,1.87C246.76,506.426,247.069,507.006,247.43,507.546z"/>
<g>
</g>
<g>
</g>
<g>
</g>
<g>
</g>
<g>
</g>
<g>
</g>
<g>
</g>
<g>
</g>
<g>
</g>
<g>
</g>
<g>
</g>
<g>
</g>
<g>
</g>
<g>
</g>
<g>
</g>
</svg>
