<svg viewBox="0 0 512 512" xmlns="http://www.w3.org/2000/svg"><g><g><path d="m424 432h-336l40.845-176.994a40 40 0 0 1 38.976-31.006h176.358a40 40 0 0 1 38.976 31.006z" fill="#898890"/><path d="m16 432h480v32h-480z" fill="#5f4d37"/><path d="m32 464h448v24h-448z" fill="#957856"/><path d="m164 280h184a20 20 0 0 1 20 20v132a0 0 0 0 1 0 0h-224a0 0 0 0 1 0 0v-132a20 20 0 0 1 20-20z" fill="#e0e0e2"/><g fill="#ffda44"><circle cx="256" cy="368" r="24"/><path d="m176 120v-20a76.085 76.085 0 0 1 76-76h8a76.085 76.085 0 0 1 76 76v20z"/><circle cx="232" cy="144" r="8"/><circle cx="280" cy="144" r="8"/></g><path d="m312 120h24a0 0 0 0 1 0 0v32a16 16 0 0 1 -16 16h-8a0 0 0 0 1 0 0v-48a0 0 0 0 1 0 0z" fill="#ffdaaa"/><path d="m176 120h24a0 0 0 0 1 0 0v48a0 0 0 0 1 0 0h-8a16 16 0 0 1 -16-16v-32a0 0 0 0 1 0 0z" fill="#ffdaaa"/><rect fill="#ffdaaa" height="64" rx="20" width="48" x="72" y="352"/><rect fill="#ffdaaa" height="64" rx="20" transform="matrix(0 1 -1 0 816 -32)" width="48" x="400" y="360"/><path d="m56 304 24 48" fill="none"/><path d="m216 224c0 17.67 17.91 32 40 32s40-14.33 40-32z" fill="#ffdaaa"/><path d="m312 108v56a52 52 0 0 1 -52 52h-8a52 52 0 0 1 -52-52v-44s71.82 0 111.85-15.94c.1 1.3.15 2.61.15 3.94z" fill="#ffdaaa"/><path d="m216 208h80v24h-80z" fill="#ffdaaa"/></g><g><path d="m496 424h-60a28.031 28.031 0 0 0 28-28v-8a28.031 28.031 0 0 0 -28-28h-19.45l-21.78-100.26a48.215 48.215 0 0 0 -47.81-43.74h-42.96v-8a8.074 8.074 0 0 0 -.49-2.75 59.858 59.858 0 0 0 15.28-29.25h1.21a24.032 24.032 0 0 0 24-24v-52a84.092 84.092 0 0 0 -84-84h-8a84.092 84.092 0 0 0 -84 84v52a24.032 24.032 0 0 0 24 24h1.21a59.858 59.858 0 0 0 15.28 29.25 8.074 8.074 0 0 0 -.49 2.75v8h-42.96a48.215 48.215 0 0 0 -47.81 43.74l-18.3 84.26h-6.93a27.525 27.525 0 0 0 -6.65.81l-22.19-44.39a8.005 8.005 0 1 0 -14.32 7.16l22.68 45.35a27.918 27.918 0 0 0 -7.52 19.07v24a28.031 28.031 0 0 0 28 28h-76a8 8 0 0 0 -8 8v32a8 8 0 0 0 8 8h8v16a8 8 0 0 0 8 8h448a8 8 0 0 0 8-8v-16h8a8 8 0 0 0 8-8v-32a8 8 0 0 0 -8-8zm-84-48h24a12.01 12.01 0 0 1 12 12v8a12.01 12.01 0 0 1 -12 12h-24a12.01 12.01 0 0 1 -12-12v-8a12.01 12.01 0 0 1 12-12zm-84-224a8.011 8.011 0 0 1 -8 8v-32h8zm-136 8a8.011 8.011 0 0 1 -8-8v-24h8zm-8-48v-12a68.071 68.071 0 0 1 68-68h8a68.071 68.071 0 0 1 68 68v12h-8v-4c0-1.53-.06-3.06-.17-4.55a8 8 0 0 0 -10.94-6.82c-38.12 15.18-108.19 15.37-108.89 15.37zm24 52v-36.12c18.1-.45 62.86-2.58 96-12.63v48.75a44.052 44.052 0 0 1 -44 44h-8a44.052 44.052 0 0 1 -44-44zm80 53.04v6.96c0 13.23-14.35 24-32 24s-32-10.77-32-24v-6.96a59.553 59.553 0 0 0 28 6.96h8a59.553 59.553 0 0 0 28-6.96zm-155.02 45.59a7.954 7.954 0 0 0 .16-1.09 32.138 32.138 0 0 1 31.9-29.54h43.93c4.46 18.24 23.85 32 47.03 32s42.57-13.76 47.03-32h43.93a32.138 32.138 0 0 1 31.9 29.54 7.954 7.954 0 0 0 .16 1.09l21.68 99.76a28.035 28.035 0 0 0 -16.7 25.61v8a28.031 28.031 0 0 0 28 28h-36v-124a28.031 28.031 0 0 0 -28-28h-184a28.031 28.031 0 0 0 -28 28v124h-36a28.031 28.031 0 0 0 28-28v-24a27.987 27.987 0 0 0 -13.57-23.98zm227.02 37.37v124h-208v-124a12.01 12.01 0 0 1 12-12h184a12.01 12.01 0 0 1 12 12zm-280 96v-24a12.01 12.01 0 0 1 12-12h8a12.01 12.01 0 0 1 12 12v24a12.01 12.01 0 0 1 -12 12h-8a12.01 12.01 0 0 1 -12-12zm392 84h-432v-8h432zm16-24h-464v-16h464z"/><path d="m256 336a32 32 0 1 0 32 32 32.036 32.036 0 0 0 -32-32zm0 48a16 16 0 1 1 16-16 16.019 16.019 0 0 1 -16 16z"/><circle cx="232" cy="144" r="8"/><circle cx="280" cy="144" r="8"/><path d="m248 192h16a8 8 0 0 0 0-16h-16a8 8 0 0 0 0 16z"/></g></g></svg>